HIERARCHY
ROOT Hips
{
	OFFSET 0.000000 0.000000 0.000000
	CHANNELS 6 Xposition Yposition Zposition Zrotation Yrotation Xrotation 
	JOINT LHipJoint
	{
		OFFSET 0.000000 0.000000 0.000000
		CHANNELS 3 Zrotation Yrotation Xrotation
		JOINT LeftUpLeg
		{
			OFFSET 1.363060 -1.794630 0.839290
			CHANNELS 3 Zrotation Yrotation Xrotation
			JOINT LeftLeg
			{
				OFFSET 2.448110 -6.726130 0.000000
				CHANNELS 3 Zrotation Yrotation Xrotation
				JOINT LeftFoot
				{
					OFFSET 2.562200 -7.039590 0.000000
					CHANNELS 3 Zrotation Yrotation Xrotation
					JOINT LeftToeBase
					{
						OFFSET 0.157640 -0.433110 2.322550
						CHANNELS 3 Zrotation Yrotation Xrotation
						End Site
						{
							OFFSET 0.000000 0.000000 0.000000
						}
					}
				}
			}
		}
	}
	JOINT RHipJoint
	{
		OFFSET 0.000000 0.000000 0.000000
		CHANNELS 3 Zrotation Yrotation Xrotation
		JOINT RightUpLeg
		{
			OFFSET -1.305520 -1.794630 0.839290
			CHANNELS 3 Zrotation Yrotation Xrotation
			JOINT RightLeg
			{
				OFFSET -2.542530 -6.985550 0.000000
				CHANNELS 3 Zrotation Yrotation Xrotation
				JOINT RightFoot
				{
					OFFSET -2.568260 -7.056230 0.000000
					CHANNELS 3 Zrotation Yrotation Xrotation
					JOINT RightToeBase
					{
						OFFSET -0.164730 -0.452590 2.363150
						CHANNELS 3 Zrotation Yrotation Xrotation
						End Site
						{
							OFFSET 0.000000 0.000000 0.000000
						}
					}
				}
			}
		}
	}
}
MOTION
Frames: 30
Frame Time: 0.008333
-9.385585 16.438537 -2.584441 3.913003 77.162160 17.816435 -10.146863 -0.190550 3.825856 -0.396960 -0.659625 -43.800102 -1.498142 0.557553 17.276060 0.774112 4.173693 6.221115 1.315300 0.000000 -35.555900 9.938175 -2.506203 -0.606194 6.477100 -0.218776 -7.426266 -0.261114 -2.843194 47.671793 -0.803115 -3.115857 -2.831572 -0.331200 -0.000000 -59.435500
-9.166855 16.401794 -2.558329 7.051207 76.886598 20.749435 -10.209268 -0.145846 3.587428 -1.540581 -0.098847 -44.300176 -1.465042 0.793336 19.827797 0.871512 4.789795 7.090288 1.516400 0.000000 -34.183100 10.122703 -2.452795 -0.614445 5.959335 -0.567815 -9.062882 -0.621919 -3.019951 51.466091 -1.242236 -5.921721 -3.079144 -0.549800 0.000000 -51.257700
-8.956901 16.370555 -2.529983 9.892540 76.564202 23.410365 -10.237275 -0.115247 3.327751 -2.658669 0.489982 -44.711391 -1.447897 0.996700 22.222641 0.956424 5.329400 7.525301 1.676000 0.000000 -33.175600 10.318296 -2.377449 -0.613654 5.523406 -0.819704 -10.784029 -0.925437 -3.190237 55.081777 -1.675578 -8.603625 -3.713451 -0.698400 -0.000001 -42.404200
-8.755564 16.345924 -2.500372 12.296469 76.166244 25.657586 -10.233188 -0.089959 3.049708 -3.712267 1.108123 -45.009677 -1.448897 1.171410 24.441485 1.026735 5.780741 7.478292 1.775200 0.000000 -32.641100 10.519293 -2.280840 -0.601240 5.183790 -0.948213 -12.565252 -1.177471 -3.355326 58.442740 -2.076206 -11.016046 -4.660890 -0.731000 -0.000000 -33.949600
-8.562257 16.328657 -2.470397 14.155972 75.672406 27.382226 -10.204561 -0.063757 2.755318 -4.669681 1.765278 -45.176533 -1.468821 1.321868 26.469551 1.082726 6.139390 6.956014 1.803500 0.000000 -32.602200 10.716414 -2.163411 -0.572408 4.955543 -0.926078 -14.381666 -1.389513 -3.511757 61.485567 -2.424174 -13.062049 -5.753424 -0.647799 -0.000000 -27.365000
-8.376161 16.319089 -2.440738 15.431571 75.073713 28.539525 -10.161434 -0.033201 2.447953 -5.508552 2.468808 -45.194748 -1.507072 1.450893 28.287536 1.126820 6.411780 6.015195 1.760500 -0.000000 -33.028400 10.899217 -2.027828 -0.526635 4.847523 -0.751154 -16.213999 -1.564592 -3.656675 64.189121 -2.701975 -14.648544 -6.963998 -0.449600 -0.000000 -22.590900
-8.196238 16.317134 -2.411697 16.164909 74.372401 29.163091 -10.112969 0.003064 2.132005 -6.219402 3.217390 -45.044845 -1.561680 1.558959 29.869816 1.162936 6.616630 4.753733 1.657200 0.000000 -33.859200 11.059459 -1.878809 -0.467027 4.857330 -0.445154 -18.044572 -1.699990 -3.788755 66.543226 -2.897963 -15.707335 -8.337197 -0.135400 -0.000001 -18.861000
-8.021329 16.322478 -2.382966 16.487157 73.579458 29.378036 -10.063573 0.045438 1.813127 -6.813933 3.992324 -44.709918 -1.629869 1.643875 31.184385 1.196069 6.786588 3.293975 1.512900 -0.000000 -34.971300 11.195000 -1.721165 -0.397578 4.960039 -0.045663 -19.859924 -1.792374 -3.907799 68.531486 -3.007513 -16.211409 -9.870363 0.271200 -0.000000 -15.697700
-7.850246 16.334563 -2.354605 16.468771 72.711851 29.250217 -10.019256 0.093495 1.496639 -7.290436 4.790527 -44.188665 -1.706704 1.705455 32.215562 1.229399 6.943474 1.766920 1.346000 -0.000000 -36.242300 11.300769 -1.559180 -0.320036 5.156245 0.420545 -21.637706 -1.839178 -4.010813 70.131862 -3.034862 -16.188707 -11.510038 0.720400 0.000000 -12.908200
-7.681867 16.352682 -2.325988 16.243900 71.790890 28.912433 -9.981179 0.147784 1.188844 -7.670745 5.592946 -43.487447 -1.787318 1.742577 32.951092 1.265758 7.116215 0.298080 1.176600 0.000001 -37.503699 11.377832 -1.396233 -0.236740 5.421691 0.914444 -23.365405 -1.838811 -4.096653 71.329961 -2.989065 -15.697887 -13.180147 1.152900 -0.000000 -10.418000
-7.515197 16.376051 -2.296504 15.916370 70.839998 28.469864 -9.950027 0.209266 0.895640 -7.976998 6.385542 -42.626315 -1.866651 1.755829 33.394316 1.306063 7.324397 -1.006162 1.021200 -0.000001 -38.602800 11.427372 -1.234388 -0.148950 5.737852 1.401872 -25.034248 -1.792833 -4.163539 72.118939 -2.885821 -14.838449 -14.787893 1.513800 0.000000 -8.295200
-7.349477 16.403869 -2.265490 15.562147 69.883061 28.002356 -9.926219 0.279228 0.622704 -8.230742 7.158634 -41.636601 -1.940314 1.747279 33.562395 1.349481 7.577098 -2.067104 0.892199 -0.000000 -39.434501 11.450550 -1.074807 -0.056721 6.090959 1.854182 -26.641490 -1.706355 -4.209482 72.502414 -2.746119 -13.740761 -16.246831 1.769700 0.000000 -6.657100
-7.184138 16.435385 -2.232232 15.242329 68.940400 27.576760 -9.908789 0.359086 0.373961 -8.456346 7.905073 -40.554648 -2.005721 1.719807 33.481768 1.393968 7.873653 -2.839206 0.798700 0.000000 -39.963000 11.449622 -0.917640 0.039438 6.465802 2.246654 -28.189528 -1.587365 -4.233221 72.495334 -2.594123 -12.552163 -17.499055 1.917400 -0.000000 -5.595400
-7.018921 16.469895 -2.196164 14.986865 68.029636 27.229457 -9.897114 0.449620 0.152201 -8.671222 8.624529 -39.420862 -2.062077 1.677192 33.188529 1.436502 8.201196 -3.312154 0.744999 0.000000 -40.220800 11.425642 -0.763045 0.140268 6.855918 2.565622 -29.684316 -1.444897 -4.233739 72.120715 -2.454727 -11.420826 -18.526620 1.981400 -0.000001 -5.123400
-6.853684 16.506824 -2.156971 14.799181 67.163056 26.971740 -9.890955 0.550800 -0.040873 -8.885258 9.322556 -38.276951 -2.110369 1.623665 32.726024 1.473819 8.537849 -3.508263 0.731000 0.000000 -40.287100 11.378286 -0.611815 0.247936 7.262747 2.808851 -31.134070 -1.286388 -4.210633 71.406967 -2.350718 -10.474897 -19.362817 2.003800 0.000000 -5.029500
-6.688558 16.545637 -2.114380 14.675793 66.346438 26.806366 -9.889229 0.661710 -0.206104 -9.105205 10.005549 -37.156884 -2.153147 1.562989 32.137883 1.503256 8.859792 -3.475239 0.751700 -0.000000 -40.260200 11.307425 -0.464914 0.364074 7.687059 2.982059 -32.544696 -1.116651 -4.164522 70.382139 -2.299448 -9.802633 -20.073314 2.028200 -0.000000 -4.982000
-6.523909 16.585951 -2.068269 14.615571 65.577863 26.735537 -9.889443 0.781023 -0.347023 -9.338623 10.676885 -36.081795 -2.193838 1.497978 31.463077 1.523410 9.148103 -3.275661 0.798900 -0.000000 -40.233700 11.214369 -0.323152 0.489472 8.122684 3.096395 -33.916982 -0.938915 -4.096526 69.067764 -2.310301 -9.442412 -20.716365 2.085000 0.000000 -4.791500
-6.359972 16.627367 -2.018881 14.586120 64.851933 26.731259 -9.891572 0.906008 -0.467066 -9.577123 11.345007 -35.070883 -2.235271 1.431657 30.742631 1.533499 9.384294 -2.979126 0.860600 0.000001 -40.286800 11.097125 -0.188998 0.627265 8.578635 3.176263 -35.246819 -0.752383 -4.007001 67.478902 -2.386901 -9.384858 -21.368881 2.196100 0.000001 -4.009100
-6.197216 16.669572 -1.966412 14.572879 64.158278 26.777364 -9.893763 1.034254 -0.571736 -9.817469 12.009744 -34.124640 -2.279647 1.365454 30.003974 1.534604 9.564481 -2.648017 0.925800 -0.000000 -40.474500 10.956915 -0.064630 0.778735 9.050482 3.243590 -36.520584 -0.557092 -3.896113 65.617506 -2.523322 -9.575091 -22.048991 2.361800 -0.000000 -2.623900
-6.035994 16.712208 -1.911283 14.550508 63.482959 26.846343 -9.895388 1.162843 -0.667048 -10.049596 12.671233 -33.237264 -2.327998 1.300706 29.269120 1.528469 9.690821 -2.333076 0.985000 0.000000 -40.826901 10.794259 0.047196 0.944702 9.538545 3.322839 -37.717534 -0.352502 -3.762762 63.476564 -2.707009 -9.928323 -22.746653 2.568200 0.000000 -0.730000
-5.876603 16.754887 -1.853856 14.502910 62.812368 26.915633 -9.895820 1.289635 -0.758869 -10.264140 13.325557 -32.391214 -2.380013 1.237924 28.548690 1.517713 9.775372 -2.065946 1.032600 -0.000000 -41.350900 10.611409 0.143148 1.124821 10.039767 3.432408 -38.809533 -0.138250 -3.605236 61.042550 -2.918688 -10.341288 -23.417306 -177.212300 0.000000 -1.391300
-5.719303 16.797123 -1.794461 14.415267 62.133662 26.961235 -9.895232 1.412897 -0.852786 -10.449967 13.969321 -31.564248 -2.434293 1.177555 27.846198 1.504909 9.833511 -1.858708 1.067200 0.000000 -42.029100 10.411051 0.219594 1.317331 10.553966 3.584466 -39.763136 0.086618 -3.420914 58.299957 -3.135777 -10.710995 -24.004123 -177.014800 -0.000000 -3.419499
-5.564154 16.838361 -1.733304 14.277871 61.436744 26.964596 -9.894291 1.531444 -0.954417 -10.596315 14.601422 -30.733511 -2.488909 1.120297 27.160710 1.492165 9.880688 -1.705807 1.090800 0.000000 -42.823300 10.196425 0.273497 1.519118 11.083276 3.784111 -40.544525 0.324089 -3.206311 55.235905 -3.335413 -10.947986 -24.454612 -176.873601 -0.000000 -5.089100
-5.411214 16.877928 -1.670483 14.093094 60.717149 26.913982 -9.893654 1.645514 -1.067853 -10.696765 15.221657 -29.873823 -2.541326 1.066582 26.486753 1.480851 9.931125 -1.585248 1.108300 -0.000000 -43.681700 9.972155 0.302342 1.727363 11.628104 4.025941 -41.120357 0.577145 -2.957160 51.842253 -3.497450 -10.988054 -24.730783 -176.814900 0.000000 -6.229500
-5.260318 16.915093 -1.605873 13.867386 59.973732 26.807501 -9.893776 1.755520 -1.197375 -10.747907 15.833048 -28.969239 -2.589590 1.017589 25.821127 1.471243 9.992494 -1.467586 1.125700 0.000000 -44.547400 9.743352 0.306524 1.939251 12.189245 4.301134 -41.467262 0.848541 -2.667855 48.118936 -3.606965 -10.800184 -24.809892 -176.851200 -0.000000 -6.743300
-5.111429 16.949141 -1.539203 13.620630 59.211809 26.651593 -9.894638 1.863382 -1.344903 -10.752436 16.439544 -28.004750 -2.631727 0.974053 25.160324 1.462749 10.068486 -1.317143 1.149600 0.000000 -45.374201 9.517224 0.288187 2.154078 12.760868 4.592352 -41.568711 1.139337 -2.332124 44.076072 -3.654243 -10.385863 -24.678103 -176.981300 0.000000 -6.550700
-4.964208 16.979266 -1.470023 13.376833 58.439848 26.466173 -9.895351 1.971163 -1.510609 -10.720198 17.043862 -26.981080 -2.666931 0.936940 24.506375 1.454174 10.156598 -1.102771 1.185700 -0.000000 -46.135800 9.301895 0.253398 2.373273 13.331462 4.883020 -41.430636 1.447275 -1.943617 39.740495 -3.636506 -9.777508 -24.336186 -177.190500 0.000000 -5.639800
-4.818580 17.004807 -1.397876 13.166646 57.667540 26.271457 -9.894020 2.081392 -1.695554 -10.664625 17.651998 -25.893120 -2.695039 0.906818 23.860263 1.443824 10.250410 -0.798692 1.238300 -0.000000 -46.832500 9.109004 0.211637 2.594590 13.880983 5.145946 -41.063910 1.764926 -1.498693 35.157709 -3.554269 -9.025914 -23.779395 -177.459900 -0.000000 -3.877200
-4.674394 17.025262 -1.322308 13.025060 56.905447 26.094738 -9.888078 2.197309 -1.896521 -10.605133 18.263971 -24.743949 -2.716472 0.883462 23.225160 1.430413 10.343112 -0.390334 1.309700 -0.000000 -47.487000 8.951659 0.173714 2.815318 14.384760 5.349677 -40.502139 2.078868 -0.999715 30.402043 -3.412191 -8.192709 -23.003314 -177.768399 -0.000000 -1.068900
-4.531332 17.040199 -1.242819 12.979498 56.163189 25.962641 -9.875534 2.322174 -2.104460 -10.562249 18.874276 -23.551315 -2.731847 0.865987 22.610467 1.413562 10.429883 0.121923 1.399900 0.000001 -48.137800 8.839487 0.149390 3.033052 14.824348 5.465761 -39.804594 2.373853 -0.456770 25.584120 -3.223798 -7.338816 -22.061402 1.913400 -0.000000 -2.501600
